<?xml version="1.0" standalone="no"?>
<!DOCTYPE svg PUBLIC "-//W3C//DTD SVG 20010904//EN"
 "http://www.w3.org/TR/2001/REC-SVG-20010904/DTD/svg10.dtd">
<svg version="1.0" xmlns="http://www.w3.org/2000/svg"
 width="640.000000pt" height="640.000000pt" viewBox="0 0 640.000000 640.000000"
 preserveAspectRatio="xMidYMid meet">
<metadata>
Created by potrace 1.11, written by Peter Selinger 2001-2013
</metadata>
<g transform="translate(0.000000,640.000000) scale(0.100000,-0.100000)"
fill="#000000" stroke="none">
<path d="M0 3200 l0 -3200 3200 0 3200 0 0 3200 0 3200 -3200 0 -3200 0 0
-3200z m3595 1582 c2 -2 21 6 42 19 l38 23 -23 -31 c-30 -42 -28 -50 16 -58
l37 -8 -43 -11 -42 -11 26 -39 c27 -39 23 -39 -27 -4 l-27 18 -9 -48 -9 -47
-8 43 c-9 48 -16 51 -59 20 l-31 -23 23 38 c13 21 21 40 19 42 -2 3 -22 9 -44
13 l-39 9 43 8 c23 4 42 10 42 13 0 2 -10 21 -22 40 l-22 36 36 -22 c19 -12
38 -22 40 -22 3 0 9 19 13 43 l8 42 9 -39 c4 -22 10 -42 13 -44z m-722 1 c3
-3 20 5 36 17 35 24 40 17 11 -20 -11 -14 -20 -28 -20 -31 0 -4 19 -10 43 -14
l42 -8 -42 -11 -42 -11 20 -32 c24 -38 19 -41 -21 -13 l-29 20 -9 -42 c-9 -43
-14 -40 -26 15 l-7 28 -28 -21 c-40 -28 -46 -25 -21 11 12 16 21 32 19 33 -2
2 -22 8 -44 13 l-40 10 43 8 c23 4 42 10 42 14 0 3 -9 17 -20 31 -28 36 -24
44 10 20 34 -24 50 -19 50 14 0 36 14 40 21 6 4 -17 9 -34 12 -37z m360 0 c3
-3 20 5 36 17 35 24 40 17 11 -20 -11 -14 -20 -28 -20 -31 0 -4 19 -10 43 -14
l42 -8 -43 -11 -42 -11 26 -39 c27 -39 23 -39 -28 -4 l-28 19 -6 -41 c-7 -43
-24 -38 -24 8 0 27 -14 28 -51 1 -34 -24 -37 -18 -8 23 12 16 19 31 17 33 -2
3 -22 9 -44 13 l-39 9 43 8 c23 4 42 10 42 13 0 2 -10 21 -22 41 l-22 36 31
-23 c38 -27 53 -28 53 -3 0 11 3 28 7 38 6 14 8 11 14 -15 4 -18 9 -36 12 -39z
m485 -800 l-3 -457 -250 -162 c-223 -146 -252 -162 -270 -151 -11 7 -127 82
-257 167 l-238 155 0 453 0 452 510 0 510 0 -2 -457z m-2044 -1282 c18 -19 18
-19 49 0 43 25 57 24 103 -10 l40 -28 34 28 c50 42 72 38 141 -28 l59 -56 0
-239 0 -238 -55 0 -55 0 0 214 c0 212 0 215 -24 243 -20 24 -26 25 -40 14 -14
-12 -16 -44 -16 -243 l0 -229 -57 3 -58 3 -5 228 c-4 188 -8 229 -20 237 -44
28 -49 3 -52 -241 l-3 -224 -55 0 -55 0 -5 225 c-4 193 -8 230 -22 253 -25 37
-23 42 25 76 50 36 49 36 71 12z m799 -2 l15 -20 33 20 c53 33 73 27 139 -37
56 -55 60 -61 60 -105 0 -37 -6 -53 -29 -79 l-29 -33 30 -38 c32 -39 47 -112
48 -224 l0 -53 -60 0 c-68 0 -63 -8 -75 139 -3 41 -10 80 -16 88 -7 7 -27 13
-45 13 l-34 0 0 -120 0 -121 -57 3 -58 3 -5 230 c-4 204 -7 233 -24 258 -10
15 -17 30 -14 32 18 18 85 64 95 64 6 1 18 -8 26 -20z m593 -31 c31 -29 63
-67 71 -85 9 -24 13 -88 13 -238 l0 -205 -60 0 -60 0 0 60 0 60 -50 0 -50 0 0
-60 0 -60 -60 0 -60 0 0 205 c0 150 4 214 13 238 21 48 122 137 157 137 20 0
45 -15 86 -52z m260 4 c12 -23 25 -71 29 -107 7 -71 18 -80 53 -42 16 17 25
46 34 105 l11 82 59 0 c55 0 58 -1 54 -22 -3 -13 -8 -50 -12 -83 -7 -66 -21
-100 -53 -129 l-21 -19 39 -42 c40 -44 44 -55 57 -202 l7 -73 -60 0 -60 0 -7
96 c-7 98 -23 147 -51 158 -43 16 -45 12 -45 -124 l0 -130 -60 0 -60 0 0 213
c0 205 -1 216 -24 258 l-23 44 45 33 c26 18 51 31 56 29 6 -2 21 -22 32 -45z
m1164 -2 l0 -50 -71 0 c-98 0 -109 -8 -109 -75 l0 -55 75 0 75 0 0 -50 0 -50
-75 0 -75 0 0 -75 0 -75 100 0 100 0 0 -50 0 -50 -155 0 -155 0 0 253 0 252
53 37 c51 36 54 37 145 38 l92 0 0 -50z m166 25 l16 -25 32 25 c18 14 42 25
53 25 23 0 118 -72 133 -100 6 -11 10 -119 10 -254 l0 -236 -55 0 -55 0 0 214
c0 201 -1 215 -21 240 -25 31 -33 32 -59 6 -19 -19 -20 -33 -20 -240 l0 -220
-54 0 -54 0 -4 223 c-3 210 -4 224 -26 261 -13 21 -22 40 -20 41 29 23 93 65
99 65 5 0 16 -11 25 -25z m-2356 -270 l0 -285 -60 0 -60 0 0 285 0 285 60 0
60 0 0 -285z m1650 235 l0 -50 -50 0 -50 0 -2 -237 -3 -238 -57 -3 -58 -3 0
241 0 240 -55 0 -55 0 0 50 0 50 165 0 165 0 0 -50z m170 -235 l0 -285 -60 0
-60 0 0 285 0 285 60 0 60 0 0 -285z"/>
<path d="M3350 4193 c-42 -15 -150 -143 -150 -177 0 -32 27 -53 98 -77 47 -16
71 -32 101 -65 38 -43 39 -44 45 -20 7 29 -4 63 -39 114 -19 28 -25 49 -25 91
0 48 4 58 28 77 24 20 25 24 12 37 -18 18 -50 27 -70 20z"/>
<path d="M3014 4118 c0 -17 5 -19 43 -13 35 5 44 3 49 -10 11 -27 -10 -37 -82
-41 -96 -6 -114 -11 -123 -37 -11 -28 5 -74 30 -88 15 -8 19 -21 19 -69 0 -54
-3 -63 -29 -88 -27 -25 -29 -31 -23 -72 7 -42 9 -45 40 -48 36 -4 45 16 12 25
-16 4 -19 11 -14 27 11 36 47 68 110 97 34 15 74 42 90 59 37 38 49 39 29 1
-14 -28 -14 -30 7 -36 11 -4 41 -20 66 -36 30 -19 59 -29 83 -29 32 0 41 -5
59 -35 33 -53 76 -85 116 -85 42 0 45 16 3 25 -34 8 -63 47 -80 109 -16 60
-46 92 -113 121 -33 15 -79 41 -101 58 -38 30 -42 31 -147 32 -95 0 -108 2
-108 17 0 25 31 38 94 38 91 0 117 51 41 80 -50 20 -71 19 -71 -2z"/>
<path d="M3410 4099 c-13 -23 -5 -73 13 -87 7 -5 22 -13 34 -16 18 -6 26 -1
43 26 29 48 26 65 -16 83 -48 20 -61 19 -74 -6z m38 -11 c-6 -18 -28 -21 -28
-4 0 9 7 16 16 16 9 0 14 -5 12 -12z"/>
<path d="M3073 3783 c-44 -22 -43 -52 2 -92 25 -22 46 -31 70 -31 19 0 35 2
35 5 0 3 -20 14 -45 25 -49 21 -52 26 -30 54 16 21 20 56 8 55 -5 0 -23 -8
-40 -16z"/>
<path d="M3300 3727 c0 -7 15 -27 33 -45 41 -40 72 -44 35 -4 -14 15 -28 35
-31 45 -7 20 -37 23 -37 4z"/>
<path d="M2523 2603 c-9 -3 -13 -27 -13 -69 0 -55 2 -64 18 -64 27 0 62 42 62
74 0 53 -26 76 -67 59z"/>
<path d="M2950 2578 c-17 -19 -20 -35 -20 -120 l0 -98 50 0 50 0 0 98 c0 90
-2 100 -23 120 -29 27 -31 27 -57 0z"/>
</g>
</svg>
